<?xml version="1.0" standalone="no"?>
<!DOCTYPE svg PUBLIC "-//W3C//DTD SVG 20010904//EN"
 "http://www.w3.org/TR/2001/REC-SVG-20010904/DTD/svg10.dtd">
<svg version="1.0" xmlns="http://www.w3.org/2000/svg"
 width="96.000000pt" height="96.000000pt" viewBox="0 0 96.000000 96.000000"
 preserveAspectRatio="xMidYMid meet">
<metadata>
Created by potrace 1.11, written by Peter Selinger 2001-2013
</metadata>
<g transform="translate(0.000000,96.000000) scale(0.100000,-0.100000)"
fill="#000000" stroke="none">
<path d="M145 818 c-54 -14 -54 -19 -55 -336 0 -179 4 -301 10 -312 6 -11 25
-23 43 -28 24 -6 641 -9 680 -3 4 0 16 10 27 21 19 19 20 33 20 273 0 241 -1
254 -20 275 -24 26 -16 24 -150 26 -102 1 -105 2 -117 27 -29 61 -38 63 -233
64 -98 0 -190 -3 -205 -7z m192 -27 c6 -1 21 -16 32 -35 12 -19 29 -37 39 -42
9 -4 103 -8 209 -9 140 -1 196 -5 207 -14 14 -11 16 -45 16 -226 0 -239 0
-238 -73 -240 -32 0 -46 5 -60 22 -24 30 -70 30 -94 0 -17 -21 -26 -22 -130
-22 -102 0 -113 2 -135 23 -31 29 -71 28 -95 -1 -15 -19 -26 -23 -62 -20 -73
4 -71 -5 -71 284 0 304 -8 285 121 282 46 0 89 -2 96 -2z m204 -22 c10 -13 16
-26 14 -29 -3 -5 -75 -6 -126 -1 -12 1 -39 38 -39 55 0 2 30 2 67 1 56 -2 69
-6 84 -26z m-227 -535 c9 -3 16 -14 16 -23 0 -15 15 -17 150 -17 134 1 150 3
150 18 0 9 5 20 10 23 17 11 50 -5 50 -25 0 -16 7 -18 65 -15 35 2 70 7 76 10
8 6 8 2 0 -13 -6 -11 -16 -22 -23 -24 -7 -2 -158 -4 -334 -3 -255 0 -325 3
-338 14 -18 15 -22 36 -6 26 6 -4 40 -8 75 -10 57 -3 65 -1 65 14 0 29 14 37
44 25z"/>
<path d="M285 640 c-40 -15 -59 -48 -59 -103 -1 -34 -8 -63 -20 -82 -10 -16
-21 -47 -23 -70 l-5 -41 137 0 137 0 -5 42 c-2 23 -13 55 -25 71 -14 20 -20
44 -20 82 0 43 -4 58 -23 77 -27 26 -64 35 -94 24z m75 -45 c15 -18 15 -92 0
-110 -7 -8 -27 -15 -45 -15 -18 0 -38 7 -45 15 -13 16 -16 87 -5 106 18 27 74
30 95 4z m-53 -158 c18 -3 40 1 51 9 17 12 22 11 35 -4 8 -9 18 -28 22 -42 l6
-25 -103 0 c-103 1 -103 1 -100 25 3 32 32 63 46 51 6 -5 25 -11 43 -14z"/>
<path d="M540 615 c0 -12 20 -15 120 -15 100 0 120 3 120 15 0 13 -20 15 -120
15 -100 0 -120 -2 -120 -15z"/>
<path d="M540 555 c0 -12 20 -15 120 -15 100 0 120 3 120 15 0 13 -20 15 -120
15 -100 0 -120 -2 -120 -15z"/>
<path d="M540 495 c0 -12 17 -15 90 -15 73 0 90 3 90 15 0 12 -17 15 -90 15
-73 0 -90 -3 -90 -15z"/>
<path d="M540 405 l0 -45 90 0 90 0 0 45 0 45 -90 0 -90 0 0 -45z"/>
</g>
</svg>
